<?xml version="1.0" encoding="iso-8859-1"?>
<!-- Generator: Adobe Illustrator 19.0.0, SVG Export Plug-In . SVG Version: 6.00 Build 0)  -->
<svg version="1.1" id="Layer_1" xmlns="http://www.w3.org/2000/svg" xmlns:xlink="http://www.w3.org/1999/xlink" x="0px" y="0px"
	 viewBox="0 0 512 512" style="enable-background:new 0 0 512 512;" xml:space="preserve">
<circle style="fill:#88C5CC;" cx="256" cy="256" r="256"/>
<path style="fill:#80B9BF;" d="M498.212,338.86c-0.132-0.336-0.256-0.684-0.412-1.016c-0.312-0.844-0.64-1.68-1.012-2.496
	c-0.304-0.816-0.616-1.62-0.976-2.416c-0.308-0.828-0.628-1.656-0.992-2.46c-0.308-0.828-0.628-1.648-0.992-2.448
	c-0.308-0.832-0.628-1.66-0.992-2.464c-0.308-0.828-0.628-1.648-0.992-2.444c-0.308-0.836-0.624-1.664-0.992-2.464
	c-0.308-0.828-0.624-1.648-0.992-2.448c-0.304-0.832-0.624-1.66-0.992-2.46c-0.304-0.828-0.624-1.648-0.992-2.448
	c-0.304-0.832-0.624-1.66-0.992-2.464c-0.304-0.828-0.624-1.648-0.992-2.448c-0.304-0.832-0.624-1.66-0.992-2.464
	c-0.304-0.828-0.624-1.648-0.992-2.444c-0.304-0.832-0.624-1.656-0.992-2.456c-0.304-0.832-0.624-1.66-0.992-2.464
	c-0.304-0.828-0.624-1.648-0.992-2.444c-0.304-0.836-0.624-1.664-0.992-2.464c-0.304-0.828-0.624-1.648-0.992-2.448
	c-0.304-0.832-0.624-1.66-0.992-2.46c-0.304-0.828-0.624-1.648-0.988-2.452c-0.308-0.828-0.628-1.656-0.992-2.46
	c-0.308-0.828-0.628-1.648-0.992-2.448c-0.308-0.832-0.628-1.66-0.992-2.464c-0.308-0.828-0.628-1.648-0.992-2.444
	c-0.312-0.844-0.64-1.68-1.008-2.496c-0.308-0.816-0.62-1.624-0.98-2.416c-0.308-0.832-0.628-1.66-0.992-2.46
	c-0.308-0.828-0.624-1.648-0.992-2.448c-0.304-0.832-0.624-1.66-0.992-2.464c-0.304-0.828-0.624-1.648-0.992-2.444
	c-0.304-0.836-0.624-1.656-0.992-2.46c-0.304-0.828-0.624-1.66-0.992-2.46c-0.304-0.828-0.624-1.648-0.992-2.448
	c-0.304-0.832-0.624-1.66-0.992-2.464c-0.304-0.828-0.624-1.648-0.992-2.448c-0.304-0.832-0.624-1.66-0.992-2.464
	c-0.304-0.828-0.624-1.648-0.992-2.448c-0.304-0.832-0.624-1.66-0.992-2.464c-0.304-0.828-0.624-1.648-0.992-2.448
	c-0.304-0.832-0.624-1.66-0.992-2.464c-0.304-0.828-0.624-1.648-0.992-2.448c-0.304-0.832-0.624-1.66-0.988-2.464
	c-0.308-0.828-0.628-1.648-0.992-2.448c-0.308-0.832-0.628-1.66-0.992-2.464c-0.308-0.828-0.628-1.648-0.992-2.448
	c-0.308-0.832-0.628-1.652-0.992-2.456c-0.308-0.832-0.628-1.66-0.992-2.464c-0.308-0.828-0.628-1.648-0.992-2.448
	c-0.308-0.832-0.628-1.66-0.992-2.464c-0.312-0.84-0.64-1.672-1.008-2.484c-0.304-0.824-0.62-1.636-0.98-2.428
	c-0.304-0.828-0.624-1.648-0.992-2.448c-0.304-0.832-0.624-1.66-0.992-2.464c-0.304-0.828-0.624-1.648-0.992-2.448
	c-0.304-0.832-0.624-1.66-0.992-2.464c-0.304-0.828-0.624-1.648-0.992-2.448c-0.304-0.832-0.624-1.66-0.992-2.464
	c-0.304-0.828-0.624-1.648-0.992-2.448c-0.304-0.832-0.624-1.66-0.992-2.464c-0.304-0.828-0.624-1.648-0.992-2.448
	c-0.304-0.832-0.624-1.66-0.992-2.464c-0.304-0.828-0.624-1.648-0.992-2.448c-0.304-0.832-0.624-1.652-0.992-2.456
	c-0.304-0.832-0.624-1.66-0.988-2.464c-0.308-0.828-0.628-1.648-0.992-2.448c-0.308-0.832-0.628-1.66-0.992-2.464
	c-0.308-0.828-0.628-1.648-0.992-2.448c-0.308-0.832-0.628-1.66-0.992-2.464c-0.308-0.828-0.628-1.648-0.992-2.448
	c-0.308-0.832-0.628-1.66-0.992-2.464c-0.308-0.828-0.628-1.648-0.992-2.448c-0.308-0.832-0.628-1.66-0.992-2.464
	c-0.308-0.828-0.628-1.648-0.992-2.448c-0.308-0.832-0.628-1.66-0.992-2.464c-0.308-0.84-0.636-1.672-1.008-2.484
	c-0.3-0.824-0.62-1.636-0.98-2.428c-0.304-0.828-0.624-1.648-0.992-2.448c-0.304-0.832-0.624-1.66-0.992-2.464
	c-0.304-0.828-0.624-1.648-0.992-2.448c-0.304-0.832-0.624-1.652-0.992-2.456c-0.304-0.832-0.624-1.66-0.992-2.464
	c-0.304-0.828-0.624-1.648-0.992-2.448c-0.304-0.832-0.624-1.66-0.992-2.464c-0.304-0.828-0.624-1.648-0.992-2.448
	c-0.304-0.832-0.624-1.66-0.988-2.464c-0.308-0.828-0.628-1.648-0.992-2.448c-5.668-15.224-20.332-26.164-37.464-26.164h-16h-220
	c-22,0-40,18-40,40v216c0,5.744,1.256,11.188,3.46,16.124c0.304,0.832,0.632,1.656,0.996,2.464c0.3,0.824,0.628,1.644,0.988,2.448
	c0.304,0.828,0.632,1.656,0.992,2.46c0.304,0.832,0.632,1.648,0.992,2.448c0.304,0.832,0.632,1.656,0.992,2.464
	c0.304,0.828,0.632,1.64,0.992,2.444c0.304,0.836,0.632,1.652,0.992,2.456c0.304,0.832,0.632,1.656,0.992,2.464
	c0.304,0.832,0.632,1.648,0.992,2.444c0.304,0.836,0.632,1.656,0.992,2.468c0.308,0.836,0.64,1.664,1.008,2.48
	c0.3,0.824,0.624,1.632,0.984,2.428c0.3,0.832,0.628,1.644,0.984,2.448c0.308,0.828,0.636,1.656,0.996,2.46
	c0.304,0.828,0.632,1.644,0.988,2.448c0.308,0.832,0.636,1.656,0.996,2.464c0.304,0.832,0.632,1.648,0.988,2.444
	c0.308,0.836,0.636,1.656,0.996,2.464c0.304,0.828,0.632,1.644,0.988,2.448c0.308,0.832,0.632,1.656,0.996,2.46
	c0.3,0.836,0.628,1.648,0.988,2.452c0.304,0.828,0.632,1.656,0.996,2.46c0.3,0.828,0.628,1.644,0.988,2.448
	c0.304,0.832,0.632,1.652,0.992,2.456c0.304,0.828,0.632,1.656,0.992,2.46c0.304,0.836,0.632,1.648,0.992,2.448
	c0.304,0.832,0.632,1.656,0.992,2.464c0.304,0.828,0.632,1.64,0.992,2.444c0.304,0.836,0.632,1.656,0.992,2.468
	c0.304,0.828,0.632,1.644,0.992,2.444c0.304,0.832,0.632,1.656,0.992,2.464c0.304,0.828,0.632,1.644,0.992,2.448
	c0.304,0.828,0.632,1.656,0.992,2.46c0.304,0.832,0.632,1.648,0.988,2.448c0.308,0.832,0.636,1.656,0.996,2.464
	c0.308,0.84,0.64,1.664,1.008,2.484c0.3,0.82,0.624,1.632,0.98,2.424c0.304,0.832,0.632,1.648,0.988,2.448
	c0.308,0.832,0.636,1.656,0.996,2.46c0.304,0.828,0.632,1.648,0.988,2.452c0.308,0.828,0.632,1.648,0.992,2.452
	c0.308,0.832,0.632,1.656,0.996,2.464c0.3,0.832,0.628,1.648,0.988,2.448c0.304,0.828,0.632,1.656,0.996,2.46
	c0.3,0.828,0.628,1.644,0.988,2.448c0.304,0.832,0.632,1.656,0.992,2.464c0.304,0.832,0.632,1.648,0.992,2.444
	c0.304,0.836,0.632,1.656,0.992,2.464c0.084,0.24,0.196,0.468,0.288,0.708C181.852,503.628,217.936,512,256,512
	C368.372,512,463.764,439.564,498.212,338.86z"/>
<g>
	<rect x="136" y="388" style="fill:#CCCCCC;" width="56" height="28"/>
	<rect x="316" y="388" style="fill:#CCCCCC;" width="56" height="28"/>
</g>
<path style="fill:#B3B3B3;" d="M414,354c0,22-18,40-40,40H138c-22,0-40-18-40-40V138c0-22,18-40,40-40h236c22,0,40,18,40,40V354z"/>
<path style="fill:#CCCCCC;" d="M374,98h-16c22,0,40,18,40,40v216c0,22-18,40-40,40h16c22,0,40-18,40-40V138C414,116,396,98,374,98z"
	/>
<path style="fill:#E6E6E6;" d="M138,386c-17.644,0-32-14.356-32-32V138c0-17.644,14.356-32,32-32h236c17.644,0,32,14.356,32,32v216
	c0,17.644-14.356,32-32,32H138z"/>
<g>
	<path style="fill:#CCCCCC;" d="M383.852,107.568C392.484,114.92,398,125.84,398,138v216c0,12.16-5.516,23.08-14.148,30.428
		C396.688,380.264,406,368.204,406,354V138C406,123.792,396.688,111.736,383.852,107.568z"/>
	<rect x="106" y="194" style="fill:#CCCCCC;" width="300" height="8"/>
	<rect x="106" y="290" style="fill:#CCCCCC;" width="300" height="8"/>
	<rect x="398" y="194" style="fill:#CCCCCC;" width="8" height="8"/>
	<rect x="398" y="290" style="fill:#CCCCCC;" width="8" height="8"/>
</g>
<circle style="fill:#FFFFFF;" cx="146" cy="150" r="20"/>
<circle style="fill:#4AB8A1;" cx="146" cy="150" r="12"/>
<circle style="fill:#FFFFFF;" cx="146" cy="246" r="20"/>
<circle style="fill:#E16B5A;" cx="146" cy="246" r="12"/>
<circle style="fill:#FFFFFF;" cx="146" cy="342" r="20"/>
<circle style="fill:#FFD464;" cx="146" cy="342" r="12"/>
<g>
	<circle style="fill:#4AB8A1;" cx="302" cy="150" r="8"/>
	<circle style="fill:#4AB8A1;" cx="338" cy="150" r="8"/>
	<circle style="fill:#4AB8A1;" cx="374" cy="150" r="8"/>
</g>
<g>
	<circle style="fill:#E16B5A;" cx="302" cy="246" r="8"/>
	<circle style="fill:#E16B5A;" cx="338" cy="246" r="8"/>
	<circle style="fill:#E16B5A;" cx="374" cy="246" r="8"/>
</g>
<g>
	<circle style="fill:#FFD464;" cx="302" cy="342" r="8"/>
	<circle style="fill:#FFD464;" cx="338" cy="342" r="8"/>
	<circle style="fill:#FFD464;" cx="374" cy="342" r="8"/>
</g>
<g>
</g>
<g>
</g>
<g>
</g>
<g>
</g>
<g>
</g>
<g>
</g>
<g>
</g>
<g>
</g>
<g>
</g>
<g>
</g>
<g>
</g>
<g>
</g>
<g>
</g>
<g>
</g>
<g>
</g>
</svg>
